<?xml version="1.0" encoding="UTF-8" standalone="no"?>
<!-- Created with Inkscape (http://www.inkscape.org/) -->

<svg
   width="120"
   height="120"
   viewBox="0 0 120 120"
   version="1.1"
   id="svg5"
   inkscape:version="1.1.2 (0a00cf5339, 2022-02-04, custom)"
   sodipodi:docname="chronos chain.svg"
   inkscape:export-filename="/home/acardiawolfman/Documentos/mydirection/Art/chronos chain.png"
   inkscape:export-xdpi="282.353"
   inkscape:export-ydpi="282.353"
   xmlns:inkscape="http://www.inkscape.org/namespaces/inkscape"
   xmlns:sodipodi="http://sodipodi.sourceforge.net/DTD/sodipodi-0.dtd"
   xmlns="http://www.w3.org/2000/svg"
   xmlns:svg="http://www.w3.org/2000/svg">
  <sodipodi:namedview
     id="namedview7"
     pagecolor="#ffffff"
     bordercolor="#666666"
     borderopacity="1.0"
     inkscape:pageshadow="2"
     inkscape:pageopacity="0.0"
     inkscape:pagecheckerboard="0"
     inkscape:document-units="px"
     showgrid="true"
     inkscape:zoom="7.2303397"
     inkscape:cx="29.320891"
     inkscape:cy="62.376046"
     inkscape:window-width="1920"
     inkscape:window-height="1050"
     inkscape:window-x="0"
     inkscape:window-y="30"
     inkscape:window-maximized="1"
     inkscape:current-layer="g7291">
    <inkscape:grid
       type="xygrid"
       id="grid1204" />
  </sodipodi:namedview>
  <defs
     id="defs2" />
  <g
     inkscape:label="Capa 1"
     inkscape:groupmode="layer"
     id="layer1">
    <g
       id="g7291"
       transform="translate(0,-4.9699173)">
      <path
         style="fill:none;fill-rule:evenodd;stroke:#000000;stroke-opacity:1"
         id="path2210"
         sodipodi:type="arc"
         sodipodi:cx="60.000481"
         sodipodi:cy="35"
         sodipodi:rx="18.5"
         sodipodi:ry="29"
         sodipodi:start="0"
         sodipodi:end="3.1382429"
         sodipodi:arc-type="slice"
         d="M 78.500481,35 A 18.5,29 0 0 1 60.031466,63.999959 18.5,29 0 0 1 41.500584,35.097143 L 60.000481,35 Z" />
      <path
         style="fill:#000000;fill-opacity:1;fill-rule:evenodd;stroke:#000000;stroke-opacity:1"
         id="path2210-6"
         sodipodi:type="arc"
         sodipodi:cx="60.000637"
         sodipodi:cy="46"
         sodipodi:rx="13.750032"
         sodipodi:ry="17"
         sodipodi:start="0"
         sodipodi:end="3.1382429"
         sodipodi:arc-type="slice"
         d="M 73.750669,46 A 13.750032,17 0 0 1 60.023667,62.999976 13.750032,17 0 0 1 46.250682,46.056946 L 60.000637,46 Z" />
      <path
         style="fill:none;fill-rule:evenodd;stroke:#000000;stroke-opacity:1"
         id="path2210-7"
         sodipodi:type="arc"
         sodipodi:cx="-59.999519"
         sodipodi:cy="-93"
         sodipodi:rx="18.5"
         sodipodi:ry="29"
         sodipodi:start="0"
         sodipodi:end="3.1382429"
         sodipodi:arc-type="slice"
         d="m -41.499519,-93 a 18.5,29 0 0 1 -18.469015,28.999959 18.5,29 0 0 1 -18.530882,-28.902816 L -59.999519,-93 Z"
         transform="scale(-1)" />
      <path
         style="fill:#000000;fill-opacity:1;fill-rule:evenodd;stroke:#000000;stroke-opacity:1"
         id="path2210-6-5"
         sodipodi:type="arc"
         sodipodi:cx="-59.998707"
         sodipodi:cy="-91.975861"
         sodipodi:rx="14.427574"
         sodipodi:ry="9.3641109"
         sodipodi:start="0"
         sodipodi:end="3.1382429"
         sodipodi:arc-type="slice"
         d="m -45.571133,-91.975861 a 14.427574,9.3641109 0 0 1 -14.403409,9.364098 14.427574,9.3641109 0 0 1 -14.451658,-9.33273 l 14.427493,-0.03137 z"
         transform="scale(-1)" />
      <path
         style="fill:#000000;fill-opacity:1;stroke:#000000;stroke-width:1px;stroke-linecap:butt;stroke-linejoin:miter;stroke-opacity:1"
         d="m 59.884963,64 c 0,0 4,-20 0,0 -4,20 -11,22 -11,22 0,0 27,6 21,0 -6,-6 -10,-22 -10,-22"
         id="path6006"
         sodipodi:nodetypes="csczc" />
      <path
         style="fill:none;stroke:#000000;stroke-width:1px;stroke-linecap:butt;stroke-linejoin:miter;stroke-opacity:1"
         d="M 40,34.969917 H 80"
         id="path7466" />
      <path
         style="fill:none;stroke:#000000;stroke-width:1px;stroke-linecap:butt;stroke-linejoin:miter;stroke-opacity:1"
         d="M 40,92.969917 H 80"
         id="path7468" />
      <path
         style="fill:none;fill-rule:evenodd;stroke:#000000;stroke-width:0.2;stroke-miterlimit:0;stroke-dasharray:none;stroke-opacity:1"
         id="path7574"
         sodipodi:type="arc"
         sodipodi:cx="39.987171"
         sodipodi:cy="38.611572"
         sodipodi:rx="0.5"
         sodipodi:ry="3.6428082"
         sodipodi:start="4.7380506"
         sodipodi:end="4.7299098"
         sodipodi:arc-type="arc"
         d="m 40.000001,34.969963 a 0.5,3.6428082 0 0 1 0.487031,3.727668 0.5,3.6428082 0 0 1 -0.510656,3.5559 0.5,3.6428082 0 0 1 -0.489109,-3.713193 0.5,3.6428082 0 0 1 0.508664,-3.571015"
         sodipodi:open="true" />
      <path
         style="fill:none;fill-rule:evenodd;stroke:#000000;stroke-width:0.2;stroke-miterlimit:0;stroke-dasharray:none;stroke-opacity:1"
         id="path7574-3"
         sodipodi:type="arc"
         sodipodi:cx="39.987171"
         sodipodi:cy="51.101204"
         sodipodi:rx="0.5"
         sodipodi:ry="3.6428082"
         sodipodi:start="4.7380506"
         sodipodi:end="4.7299098"
         sodipodi:arc-type="arc"
         sodipodi:open="true"
         d="m 40.000001,47.459595 a 0.5,3.6428082 0 0 1 0.487031,3.727667 0.5,3.6428082 0 0 1 -0.510656,3.555901 0.5,3.6428082 0 0 1 -0.489109,-3.713193 0.5,3.6428082 0 0 1 0.508664,-3.571015" />
      <path
         style="fill:none;stroke:#000000;stroke-width:0.306059;stroke-linecap:butt;stroke-linejoin:miter;stroke-miterlimit:4;stroke-dasharray:none;stroke-opacity:1"
         d="M 40,48.500395 V 41.214778"
         id="path7755" />
      <path
         style="fill:none;fill-rule:evenodd;stroke:#000000;stroke-width:0.2;stroke-miterlimit:0;stroke-dasharray:none;stroke-opacity:1"
         id="path7574-2"
         sodipodi:type="arc"
         sodipodi:cx="39.991241"
         sodipodi:cy="63.591469"
         sodipodi:rx="0.5"
         sodipodi:ry="3.6428082"
         sodipodi:start="4.7380506"
         sodipodi:end="4.7299098"
         sodipodi:arc-type="arc"
         sodipodi:open="true"
         d="m 40.004071,59.94986 a 0.5,3.6428082 0 0 1 0.487031,3.727667 0.5,3.6428082 0 0 1 -0.510655,3.555901 0.5,3.6428082 0 0 1 -0.48911,-3.713193 0.5,3.6428082 0 0 1 0.508664,-3.571015" />
      <path
         style="fill:none;fill-rule:evenodd;stroke:#000000;stroke-width:0.2;stroke-miterlimit:0;stroke-dasharray:none;stroke-opacity:1"
         id="path7574-3-9"
         sodipodi:type="arc"
         sodipodi:cx="39.991241"
         sodipodi:cy="76.0811"
         sodipodi:rx="0.5"
         sodipodi:ry="3.6428082"
         sodipodi:start="4.7380506"
         sodipodi:end="4.7299098"
         sodipodi:arc-type="arc"
         sodipodi:open="true"
         d="m 40.004071,72.439492 a 0.5,3.6428082 0 0 1 0.487031,3.727667 0.5,3.6428082 0 0 1 -0.510655,3.555901 0.5,3.6428082 0 0 1 -0.48911,-3.713194 0.5,3.6428082 0 0 1 0.508664,-3.571015" />
      <path
         style="fill:none;stroke:#000000;stroke-width:0.306059;stroke-linecap:butt;stroke-linejoin:miter;stroke-miterlimit:4;stroke-dasharray:none;stroke-opacity:1"
         d="M 40.004069,73.480292 V 66.194675"
         id="path7755-1" />
      <path
         style="fill:none;fill-rule:evenodd;stroke:#000000;stroke-width:0.2;stroke-miterlimit:0;stroke-dasharray:none;stroke-opacity:1"
         id="path7574-3-9-2"
         sodipodi:type="arc"
         sodipodi:cx="39.991241"
         sodipodi:cy="88.570732"
         sodipodi:rx="0.5"
         sodipodi:ry="3.6428082"
         sodipodi:start="4.7380506"
         sodipodi:end="4.7299098"
         sodipodi:arc-type="arc"
         sodipodi:open="true"
         d="m 40.004071,84.929123 a 0.5,3.6428082 0 0 1 0.487031,3.727668 0.5,3.6428082 0 0 1 -0.510655,3.5559 0.5,3.6428082 0 0 1 -0.48911,-3.713193 0.5,3.6428082 0 0 1 0.508664,-3.571015" />
      <path
         style="fill:none;stroke:#000000;stroke-width:0.306059;stroke-linecap:butt;stroke-linejoin:miter;stroke-miterlimit:4;stroke-dasharray:none;stroke-opacity:1"
         d="M 40.004068,85.969917 V 78.684301"
         id="path7755-1-7" />
      <path
         style="fill:none;stroke:#000000;stroke-width:0.306059;stroke-linecap:butt;stroke-linejoin:miter;stroke-miterlimit:4;stroke-dasharray:none;stroke-opacity:1"
         d="M 40,60.990023 V 53.704407"
         id="path7755-6" />
      <path
         style="fill:none;fill-rule:evenodd;stroke:#000000;stroke-width:0.2;stroke-miterlimit:0;stroke-dasharray:none;stroke-opacity:1"
         id="path7574-0"
         sodipodi:type="arc"
         sodipodi:cx="79.987167"
         sodipodi:cy="38.877083"
         sodipodi:rx="0.5"
         sodipodi:ry="3.6428082"
         sodipodi:start="4.7380506"
         sodipodi:end="4.7299098"
         sodipodi:arc-type="arc"
         sodipodi:open="true"
         d="m 79.999997,35.235474 a 0.5,3.6428082 0 0 1 0.487031,3.727667 0.5,3.6428082 0 0 1 -0.510655,3.555901 0.5,3.6428082 0 0 1 -0.48911,-3.713193 0.5,3.6428082 0 0 1 0.508664,-3.571015" />
      <path
         style="fill:none;fill-rule:evenodd;stroke:#000000;stroke-width:0.2;stroke-miterlimit:0;stroke-dasharray:none;stroke-opacity:1"
         id="path7574-3-93"
         sodipodi:type="arc"
         sodipodi:cx="79.987167"
         sodipodi:cy="51.366714"
         sodipodi:rx="0.5"
         sodipodi:ry="3.6428082"
         sodipodi:start="4.7380506"
         sodipodi:end="4.7299098"
         sodipodi:arc-type="arc"
         sodipodi:open="true"
         d="m 79.999997,47.725106 a 0.5,3.6428082 0 0 1 0.487031,3.727667 0.5,3.6428082 0 0 1 -0.510655,3.555901 0.5,3.6428082 0 0 1 -0.48911,-3.713194 0.5,3.6428082 0 0 1 0.508664,-3.571015" />
      <path
         style="fill:none;stroke:#000000;stroke-width:0.306059;stroke-linecap:butt;stroke-linejoin:miter;stroke-miterlimit:4;stroke-dasharray:none;stroke-opacity:1"
         d="M 80,48.765905 V 41.480288"
         id="path7755-60" />
      <path
         style="fill:none;fill-rule:evenodd;stroke:#000000;stroke-width:0.2;stroke-miterlimit:0;stroke-dasharray:none;stroke-opacity:1"
         id="path7574-2-6"
         sodipodi:type="arc"
         sodipodi:cx="79.991241"
         sodipodi:cy="63.856979"
         sodipodi:rx="0.5"
         sodipodi:ry="3.6428082"
         sodipodi:start="4.7380506"
         sodipodi:end="4.7299098"
         sodipodi:arc-type="arc"
         sodipodi:open="true"
         d="m 80.004071,60.215371 a 0.5,3.6428082 0 0 1 0.487031,3.727667 0.5,3.6428082 0 0 1 -0.510655,3.5559 0.5,3.6428082 0 0 1 -0.48911,-3.713193 0.5,3.6428082 0 0 1 0.508664,-3.571015" />
      <path
         style="fill:none;fill-rule:evenodd;stroke:#000000;stroke-width:0.2;stroke-miterlimit:0;stroke-dasharray:none;stroke-opacity:1"
         id="path7574-3-9-26"
         sodipodi:type="arc"
         sodipodi:cx="79.991241"
         sodipodi:cy="76.346611"
         sodipodi:rx="0.5"
         sodipodi:ry="3.6428082"
         sodipodi:start="4.7380506"
         sodipodi:end="4.7299098"
         sodipodi:arc-type="arc"
         sodipodi:open="true"
         d="m 80.004071,72.705002 a 0.5,3.6428082 0 0 1 0.487031,3.727668 0.5,3.6428082 0 0 1 -0.510655,3.5559 0.5,3.6428082 0 0 1 -0.48911,-3.713193 0.5,3.6428082 0 0 1 0.508664,-3.571015" />
      <path
         style="fill:none;stroke:#000000;stroke-width:0.306059;stroke-linecap:butt;stroke-linejoin:miter;stroke-miterlimit:4;stroke-dasharray:none;stroke-opacity:1"
         d="M 80.004069,73.745802 V 66.460185"
         id="path7755-1-1" />
      <path
         style="fill:none;fill-rule:evenodd;stroke:#000000;stroke-width:0.2;stroke-miterlimit:0;stroke-dasharray:none;stroke-opacity:1"
         id="path7574-3-9-2-8"
         sodipodi:type="arc"
         sodipodi:cx="79.991241"
         sodipodi:cy="88.836243"
         sodipodi:rx="0.5"
         sodipodi:ry="3.6428082"
         sodipodi:start="4.7380506"
         sodipodi:end="4.7299098"
         sodipodi:arc-type="arc"
         sodipodi:open="true"
         d="m 80.004071,85.194634 a 0.5,3.6428082 0 0 1 0.487031,3.727667 0.5,3.6428082 0 0 1 -0.510655,3.555901 0.5,3.6428082 0 0 1 -0.48911,-3.713194 0.5,3.6428082 0 0 1 0.508664,-3.571014" />
      <path
         style="fill:none;stroke:#000000;stroke-width:0.306059;stroke-linecap:butt;stroke-linejoin:miter;stroke-miterlimit:4;stroke-dasharray:none;stroke-opacity:1"
         d="M 80.004068,86.235427 V 78.949811"
         id="path7755-1-7-7" />
      <path
         style="fill:none;stroke:#000000;stroke-width:0.306059;stroke-linecap:butt;stroke-linejoin:miter;stroke-miterlimit:4;stroke-dasharray:none;stroke-opacity:1"
         d="M 80,61.255533 V 53.969917"
         id="path7755-6-9" />
    </g>
  </g>
</svg>
